<svg width="29" height="26" viewBox="0 0 29 26" fill="none" xmlns="http://www.w3.org/2000/svg">
<path d="M26.875 3.25H28.9375V11.5H26.875V3.25ZM21.7188 0.15625H23.7812V11.5H21.7188V0.15625ZM16.5625 5.3125H18.625V11.5H16.5625V5.3125ZM14.5 25.9375H12.4375V19.75C12.4367 18.9297 12.1105 18.1433 11.5305 17.5633C10.9504 16.9833 10.164 16.6571 9.34375 16.6562H5.21875C4.39849 16.6571 3.61206 16.9833 3.03204 17.5633C2.45203 18.1433 2.12582 18.9297 2.125 19.75V25.9375H0.0625V19.75C0.0641375 18.383 0.60791 17.0724 1.57454 16.1058C2.54117 15.1392 3.85173 14.5954 5.21875 14.5938H9.34375C10.7108 14.5954 12.0213 15.1392 12.988 16.1058C13.9546 17.0724 14.4984 18.383 14.5 19.75V25.9375ZM7.28125 4.28125C7.89314 4.28125 8.49128 4.4627 9.00005 4.80264C9.50881 5.14259 9.90534 5.62576 10.1395 6.19107C10.3737 6.75638 10.4349 7.37843 10.3156 7.97856C10.1962 8.57869 9.90153 9.12994 9.46886 9.56261C9.03619 9.99528 8.48494 10.2899 7.88481 10.4093C7.28468 10.5287 6.66263 10.4674 6.09732 10.2333C5.53201 9.99909 5.04884 9.60256 4.70889 9.0938C4.36895 8.58503 4.1875 7.98689 4.1875 7.375C4.1875 6.55449 4.51345 5.76758 5.09364 5.18739C5.67383 4.6072 6.46074 4.28125 7.28125 4.28125ZM7.28125 2.21875C6.26144 2.21875 5.26453 2.52116 4.41659 3.08773C3.56865 3.65431 2.90776 4.45961 2.5175 5.40179C2.12723 6.34397 2.02512 7.38072 2.22408 8.38093C2.42303 9.38115 2.91412 10.2999 3.63523 11.021C4.35635 11.7421 5.2751 12.2332 6.27532 12.4322C7.27553 12.6311 8.31228 12.529 9.25446 12.1388C10.1966 11.7485 11.0019 11.0876 11.5685 10.2397C12.1351 9.39172 12.4375 8.39481 12.4375 7.375C12.4375 6.69787 12.3041 6.02737 12.045 5.40179C11.7859 4.7762 11.4061 4.20778 10.9273 3.72898C10.4485 3.25018 9.88005 2.87037 9.25446 2.61125C8.62888 2.35212 7.95838 2.21875 7.28125 2.21875Z" fill="#BBD1EE"/>
</svg>
