<svg width="27" height="28" viewBox="0 0 27 28" fill="none" xmlns="http://www.w3.org/2000/svg">
<g clip-path="url(#clip0_1133_6952)">
<path d="M14.087 6.0868C13.275 6.0868 12.4963 5.76623 11.9222 5.19562C11.348 4.62501 11.0254 3.8511 11.0254 3.04413C11.0254 2.23717 11.348 1.46325 11.9222 0.892641C12.4963 0.322031 13.275 0.00146484 14.087 0.00146484C14.899 0.00146484 15.6777 0.322031 16.2519 0.892641C16.826 1.46325 17.1486 2.23717 17.1486 3.04413C17.1486 3.8511 16.826 4.62501 16.2519 5.19562C15.6777 5.76623 14.899 6.0868 14.087 6.0868ZM24.1932 6.0868C23.3812 6.0868 22.6025 5.76623 22.0284 5.19562C21.4542 4.62501 21.1317 3.8511 21.1317 3.04413C21.1317 2.23717 21.4542 1.46325 22.0284 0.892641C22.6025 0.322031 23.3812 0.00146484 24.1932 0.00146484C25.0052 0.00146484 25.7839 0.322031 26.3581 0.892641C26.9322 1.46325 27.2548 2.23717 27.2548 3.04413C27.2548 3.8511 26.9322 4.62501 26.3581 5.19562C25.7839 5.76623 25.0052 6.0868 24.1932 6.0868ZM3.06279 6.0868C2.25081 6.0868 1.47209 5.76623 0.897932 5.19562C0.323778 4.62501 0.00122079 3.8511 0.00122079 3.04413C0.00122079 2.23717 0.323778 1.46325 0.897932 0.892641C1.47209 0.322031 2.25081 0.00146484 3.06279 0.00146484C3.87476 0.00146484 4.65348 0.322031 5.22764 0.892641C5.80179 1.46325 6.12435 2.23717 6.12435 3.04413C6.12435 3.8511 5.80179 4.62501 5.22764 5.19562C4.65348 5.76623 3.87476 6.0868 3.06279 6.0868ZM14.087 17.043C13.685 17.043 13.2868 16.9643 12.9154 16.8114C12.5439 16.6584 12.2064 16.4343 11.9222 16.1518C11.6379 15.8693 11.4123 15.5338 11.2585 15.1647C11.1046 14.7955 11.0254 14.3999 11.0254 14.0003C11.0254 13.6007 11.1046 13.2051 11.2585 12.8359C11.4123 12.4668 11.6379 12.1313 11.9222 11.8488C12.2064 11.5663 12.5439 11.3421 12.9154 11.1892C13.2868 11.0363 13.685 10.9576 14.087 10.9576C14.899 10.9576 15.6777 11.2782 16.2519 11.8488C16.826 12.4194 17.1486 13.1933 17.1486 14.0003C17.1486 14.8073 16.826 15.5812 16.2519 16.1518C15.6777 16.7224 14.899 17.043 14.087 17.043ZM24.1932 17.043C23.7912 17.043 23.3931 16.9643 23.0216 16.8114C22.6502 16.6584 22.3127 16.4343 22.0284 16.1518C21.7441 15.8693 21.5186 15.5338 21.3647 15.1647C21.2108 14.7955 21.1317 14.3999 21.1317 14.0003C21.1317 13.6007 21.2108 13.2051 21.3647 12.8359C21.5186 12.4668 21.7441 12.1313 22.0284 11.8488C22.3127 11.5663 22.6502 11.3421 23.0216 11.1892C23.3931 11.0363 23.7912 10.9576 24.1932 10.9576C25.0052 10.9576 25.7839 11.2782 26.3581 11.8488C26.9322 12.4194 27.2548 13.1933 27.2548 14.0003C27.2548 14.8073 26.9322 15.5812 26.3581 16.1518C25.7839 16.7224 25.0052 17.043 24.1932 17.043ZM3.06279 17.043C2.66074 17.043 2.26262 16.9643 1.89118 16.8114C1.51973 16.6584 1.18222 16.4343 0.897932 16.1518C0.61364 15.8693 0.388127 15.5338 0.234268 15.1647C0.0804104 14.7955 0.00122073 14.3999 0.00122073 14.0003C0.00122073 13.6007 0.0804104 13.2051 0.234268 12.8359C0.388127 12.4668 0.61364 12.1313 0.897932 11.8488C1.18222 11.5663 1.51973 11.3421 1.89118 11.1892C2.26262 11.0363 2.66074 10.9576 3.06279 10.9576C3.87476 10.9576 4.65348 11.2782 5.22764 11.8488C5.80179 12.4194 6.12435 13.1933 6.12435 14.0003C6.12435 14.8073 5.80179 15.5812 5.22764 16.1518C4.65348 16.7224 3.87476 17.043 3.06279 17.043ZM14.087 27.9991C13.685 27.9991 13.2868 27.9204 12.9154 27.7675C12.5439 27.6146 12.2064 27.3905 11.9222 27.108C11.6379 26.8254 11.4123 26.49 11.2585 26.1208C11.1046 25.7517 11.0254 25.356 11.0254 24.9565C11.0254 24.5569 11.1046 24.1612 11.2585 23.7921C11.4123 23.4229 11.6379 23.0875 11.9222 22.805C12.2064 22.5224 12.5439 22.2983 12.9154 22.1454C13.2868 21.9925 13.685 21.9138 14.087 21.9138C14.8991 21.9138 15.678 22.2344 16.2523 22.8051C16.8265 23.3759 17.1492 24.1499 17.1492 24.9571C17.1492 25.7642 16.8265 26.5382 16.2523 27.109C15.678 27.6797 14.8991 27.9991 14.087 27.9991ZM24.1932 27.9991C23.7912 27.9991 23.3931 27.9204 23.0216 27.7675C22.6502 27.6146 22.3127 27.3905 22.0284 27.108C21.7441 26.8254 21.5186 26.49 21.3647 26.1208C21.2108 25.7517 21.1317 25.356 21.1317 24.9565C21.1317 24.5569 21.2108 24.1612 21.3647 23.7921C21.5186 23.4229 21.7441 23.0875 22.0284 22.805C22.3127 22.5224 22.6502 22.2983 23.0216 22.1454C23.3931 21.9925 23.7912 21.9138 24.1932 21.9138C25.0052 21.9138 25.7839 22.2344 26.3581 22.805C26.9322 23.3756 27.2548 24.1495 27.2548 24.9565C27.2548 25.7634 26.9322 26.5373 26.3581 27.108C25.7839 27.6786 25.0052 27.9991 24.1932 27.9991ZM3.06279 27.9991C2.66074 27.9991 2.26262 27.9204 1.89118 27.7675C1.51973 27.6146 1.18222 27.3905 0.897932 27.108C0.61364 26.8254 0.388127 26.49 0.234268 26.1208C0.0804104 25.7517 0.0012207 25.356 0.0012207 24.9565C0.0012207 24.5569 0.0804104 24.1612 0.234268 23.7921C0.388127 23.4229 0.61364 23.0875 0.897932 22.805C1.18222 22.5224 1.51973 22.2983 1.89118 22.1454C2.26262 21.9925 2.66074 21.9138 3.06279 21.9138C3.87476 21.9138 4.65348 22.2344 5.22764 22.805C5.80179 23.3756 6.12435 24.1495 6.12435 24.9565C6.12435 25.7634 5.80179 26.5373 5.22764 27.108C4.65348 27.6786 3.87476 27.9991 3.06279 27.9991Z" fill="#72CEAD"/>
</g>
<defs>
<clipPath id="clip0_1133_6952">
<rect width="27" height="28" fill="white"/>
</clipPath>
</defs>
</svg>
