<svg width="33" height="33" viewBox="0 0 33 33" fill="none" xmlns="http://www.w3.org/2000/svg">
<path d="M24.25 6.1875V6.6875H24.75L30.4213 6.6875C30.4214 6.6875 30.4215 6.6875 30.4216 6.6875C30.6992 6.68792 30.9653 6.79837 31.1616 6.99465L31.501 6.65524L31.1616 6.99465C31.358 7.19102 31.4684 7.45725 31.4688 7.73496V29.39C31.4684 29.6677 31.358 29.934 31.1616 30.1303C30.9652 30.3267 30.699 30.4372 30.4213 30.4375H2.57871C2.301 30.4372 2.03477 30.3267 1.8384 30.1304L1.487 30.4817L1.8384 30.1303C1.64209 29.934 1.53164 29.6679 1.53125 29.3903V7.7347C1.53164 7.45709 1.64209 7.19096 1.8384 6.99465C2.03468 6.79837 2.30078 6.68792 2.57835 6.6875C2.57847 6.6875 2.57859 6.6875 2.57871 6.6875L8.25 6.6875H8.75V6.1875V3.07812H9.8125V6.1875V6.6875H10.3125H22.6875H23.1875V6.1875V3.07812H24.25V6.1875ZM29.9062 29.375H30.4062V28.875V8.25V7.75H29.9062H24.75H24.25V8.25V10.3281H23.1875V8.25V7.75H22.6875H10.3125H9.8125V8.25V10.3281H8.75V8.25V7.75H8.25H3.09375H2.59375V8.25V28.875V29.375H3.09375H29.9062Z" fill="#D1BD7E" stroke="#D1BD7E"/>
<path d="M8.21875 15.4375H8.28125V15.5H8.21875V15.4375ZM13.8906 15.4375H13.9531V15.5H13.8906V15.4375ZM19.0469 15.4375H19.1094V15.5H19.0469V15.4375ZM24.7188 15.4375H24.7812V15.5H24.7188V15.4375ZM8.21875 20.0781H8.28125V20.1406H8.21875V20.0781ZM13.8906 20.0781H13.9531V20.1406H13.8906V20.0781ZM19.0469 20.0781H19.1094V20.1406H19.0469V20.0781ZM24.7188 20.0781H24.7812V20.1406H24.7188V20.0781ZM8.21875 24.7188H8.28125V24.7812H8.21875V24.7188ZM13.8906 24.7188H13.9531V24.7812H13.8906V24.7188ZM19.0469 24.7188H19.1094V24.7812H19.0469V24.7188ZM24.7188 24.7188H24.7812V24.7812H24.7188V24.7188Z" fill="#D1BD7E" stroke="#D1BD7E" stroke-width="2"/>
</svg>
