<svg width="33" height="30" viewBox="0 0 33 30" fill="none" xmlns="http://www.w3.org/2000/svg">
<path d="M19.6459 8.41667V5.20833C19.6459 4.35743 19.3079 3.54138 18.7062 2.9397C18.1045 2.33802 17.2884 2 16.4375 2H5.20837C4.35747 2 3.54142 2.33802 2.93974 2.9397C2.33806 3.54138 2.00004 4.35743 2.00004 5.20833V24.4583C2.00004 25.3092 2.33806 26.1253 2.93974 26.727C3.54142 27.3286 4.35747 27.6667 5.20837 27.6667H16.4375C17.2884 27.6667 18.1045 27.3286 18.7062 26.727C19.3079 26.1253 19.6459 25.3092 19.6459 24.4583V21.25" stroke="#5881A5" stroke-width="3" stroke-linecap="round" stroke-linejoin="round"/>
<path d="M11.6255 14.833H30.8755M30.8755 14.833L26.063 10.0205M30.8755 14.833L26.063 19.6455" stroke="#5881A5" stroke-width="3" stroke-linecap="round" stroke-linejoin="round"/>
</svg>
