<svg width="37" height="27" viewBox="0 0 37 27" fill="none" xmlns="http://www.w3.org/2000/svg">
<path d="M23.0862 16.5669L31.123 13.4449C32.9219 12.7459 33.4499 12.9473 34.2893 13.5655C34.764 13.915 34.9375 14.3394 34.9806 14.8636C35.0703 15.9545 34.8579 16.6618 34.1463 17.1328C29.8318 19.9861 25.2329 22.1121 19.4672 24.4429C16.6647 25.5754 12.5203 24.8282 8.79717 23.5692L3.81077 23.55C3.57342 23.5505 3.33831 23.5049 3.11886 23.416C2.89941 23.3271 2.69991 23.1965 2.53176 23.0318C2.36362 22.8671 2.23011 22.6714 2.13887 22.4559C2.04763 22.2404 2.00044 22.0094 2 21.776V16.8149C2 15.828 2.80808 15.0342 3.81077 15.0342H9.16356C11.2003 12.5445 17.4 13.3741 21.7882 13.5206C22.9728 13.5605 23.4162 14.7596 23.0862 16.5669ZM23.0862 16.5669C21.9456 18.7196 19.0458 18.1496 16.317 18.247M25.2431 8.82914L24.1998 7.80315L23.1556 8.82997H22.3289M20.2406 8.82914L21.2847 7.80315L22.3281 8.82914M17.3637 4.61117H25.5858L27.8924 6.72057L25.5858 8.82997H25.2439M20.2414 8.82997H17.3645M17.3637 8.82914L15.2787 10.8795C14.5172 11.6284 13.292 11.6284 12.5313 10.8795L9.67464 8.07275C8.9131 7.32385 8.9131 6.11895 9.67464 5.37005L12.5304 2.56168C13.292 1.81277 14.5172 1.81277 15.2779 2.56168L17.3628 4.612M13.7218 6.72057C13.7218 7.43952 13.1295 8.02283 12.3976 8.02283C11.6665 8.02283 11.0725 7.44035 11.0725 6.72057C11.0725 6.00163 11.6648 5.41832 12.3967 5.41832C13.1278 5.41832 13.7218 6.00163 13.7218 6.72057Z" stroke="#AEE3D0" stroke-width="2.5" stroke-linecap="round" stroke-linejoin="round"/>
</svg>
