<svg width="30" height="30" viewBox="0 0 30 30" fill="none" xmlns="http://www.w3.org/2000/svg">
<path fill-rule="evenodd" clip-rule="evenodd" d="M8.33333 6.66667C8.33333 4.89856 9.03571 3.20286 10.286 1.95262C11.5362 0.702379 13.2319 0 15 0C16.7681 0 18.4638 0.702379 19.714 1.95262C20.9643 3.20286 21.6667 4.89856 21.6667 6.66667C21.6667 8.43478 20.9643 10.1305 19.714 11.3807C18.4638 12.631 16.7681 13.3333 15 13.3333C13.2319 13.3333 11.5362 12.631 10.286 11.3807C9.03571 10.1305 8.33333 8.43478 8.33333 6.66667ZM8.33333 16.6667C6.1232 16.6667 4.00358 17.5446 2.44078 19.1074C0.877974 20.6702 0 22.7899 0 25C0 26.3261 0.526784 27.5979 1.46447 28.5355C2.40215 29.4732 3.67392 30 5 30H25C26.3261 30 27.5979 29.4732 28.5355 28.5355C29.4732 27.5979 30 26.3261 30 25C30 22.7899 29.122 20.6702 27.5592 19.1074C25.9964 17.5446 23.8768 16.6667 21.6667 16.6667H8.33333Z" fill="#D0CDF5"/>
</svg>
