<svg width="34" height="23" viewBox="0 0 34 23" fill="none" xmlns="http://www.w3.org/2000/svg">
<path d="M9.39861 0C9.31251 0 9.21924 -1.02658e-07 9.13315 0.00672111C6.70099 0.0604908 3.7164 0.725891 0 2.27177V18.6312C4.3621 16.6955 7.6552 16.1376 10.3456 16.4065C11.3286 16.5006 12.2325 16.7089 13.0648 16.9845L9.82908 11.6882C9.21207 11.9234 8.54484 12.0579 7.84174 12.0579C4.95687 12.0579 2.60435 9.8533 2.60435 7.15137C2.60435 4.44944 4.95687 2.24489 7.84174 2.24489C10.7259 2.24489 13.0791 4.44944 13.0791 7.15137C13.0791 8.76447 12.2397 10.1961 10.9483 11.0967L15.0593 17.8179C15.5041 18.033 15.9274 18.2683 16.3435 18.5035V2.17095C14.679 0.981298 12.7419 0.154588 10.1735 0.0201639C9.92235 0.00672142 9.66406 0 9.39861 0ZM24.6086 0C24.3431 0 24.0777 0.00672142 23.8265 0.0201639C21.2581 0.154588 19.3281 0.981298 17.6565 2.17095V18.5035C19.3712 17.5222 21.2509 16.6417 23.6544 16.4065C26.3448 16.1376 29.6451 16.6955 34 18.6312V2.27177C30.2908 0.725891 27.3062 0.0604908 24.874 0.00672111C24.7808 0.00672111 24.6947 0 24.6086 0ZM7.84174 3.4547C5.65495 3.4547 3.89576 5.1014 3.89576 7.15137C3.89576 9.20134 5.65495 10.848 7.84174 10.848C10.03 10.848 11.7877 9.20134 11.7877 7.15137C11.7877 5.1014 10.03 3.4547 7.84174 3.4547ZM8.00675 4.38895H8.20764C6.47858 5.61222 5.71234 7.21859 5.81351 9.10725C3.94383 6.49942 5.90462 4.44272 8.00675 4.38895ZM8.94661 17.5961C6.65077 17.6163 3.79532 18.2548 0 20.0158V22.8723C4.3621 20.9366 7.6552 20.3787 10.3456 20.6476C11.6801 20.782 12.8495 21.1113 13.9185 21.5415C13.5813 21.9515 13.2513 22.4354 12.9213 23H16.7453L14.1625 18.7858C12.9715 18.2279 11.7016 17.8045 10.2093 17.6566C9.80756 17.6163 9.38426 17.5961 8.94661 17.5961ZM24.7951 17.5961C24.4507 17.6029 24.1207 17.623 23.7978 17.6566C21.3585 17.8986 19.5218 18.8665 17.6565 19.9687V19.9889C17.2188 19.8612 16.774 19.8343 16.3435 19.9082L18.2304 23H21.3298C20.8993 22.4489 20.4832 21.9649 20.0599 21.5482C21.1361 21.1113 22.3127 20.782 23.6544 20.6476C26.3448 20.3787 29.6451 20.9366 34 22.8723V20.0158C30.1903 18.2481 27.3205 17.6029 25.0175 17.5961H24.7951Z" fill="#F5B0BC"/>
</svg>
